<svg xmlns="http://www.w3.org/2000/svg" viewBox="0 0 512 512" fill="none" shape-rendering="geometricPrecision">
  <defs>
    <linearGradient id="rb_stem" x1="72" y1="153" x2="164" y2="464" gradientUnits="userSpaceOnUse">
      <stop offset="0%" stop-color="#1B78FE"/>
      <stop offset="45%" stop-color="#0A5FFB"/>
      <stop offset="100%" stop-color="#0550F6"/>
    </linearGradient>
    <linearGradient id="rb_roof_l" x1="72" y1="153" x2="262" y2="48" gradientUnits="userSpaceOnUse">
      <stop offset="0%" stop-color="#2A82FD"/>
      <stop offset="100%" stop-color="#4B9AFD"/>
    </linearGradient>
    <linearGradient id="rb_roof_r" x1="256" y1="48" x2="436" y2="153" gradientUnits="userSpaceOnUse">
      <stop offset="0%" stop-color="#6BB0FE"/>
      <stop offset="55%" stop-color="#4DA0FD"/>
      <stop offset="100%" stop-color="#2F86FC"/>
    </linearGradient>
    <linearGradient id="rb_bowl" x1="348" y1="153" x2="436" y2="263" gradientUnits="userSpaceOnUse">
      <stop offset="0%" stop-color="#4CA0FE"/>
      <stop offset="100%" stop-color="#2B84FD"/>
    </linearGradient>
    <linearGradient id="rb_fold" x1="348" y1="258" x2="322" y2="328" gradientUnits="userSpaceOnUse">
      <stop offset="0%" stop-color="#1A72FC"/>
      <stop offset="100%" stop-color="#0A48D6"/>
    </linearGradient>
    <linearGradient id="rb_waist" x1="230" y1="241" x2="348" y2="328" gradientUnits="userSpaceOnUse">
      <stop offset="0%" stop-color="#1A78FE"/>
      <stop offset="100%" stop-color="#0A5AF4"/>
    </linearGradient>
    <linearGradient id="rb_leg" x1="230" y1="328" x2="440" y2="451" gradientUnits="userSpaceOnUse">
      <stop offset="0%" stop-color="#0E64FB"/>
      <stop offset="100%" stop-color="#044AEF"/>
    </linearGradient>
  </defs>

  <g>
    <!-- Silhouette underlay (kills hairline gaps between facets) -->
    <polygon points="262.57,48 435.54,153.09 433.35,262.57 321.68,328.25 439.92,407.07 358.91,450.86 229.73,376.42 229.73,271.33 286.65,240.67 347.96,258.19 347.96,203.45 256,146.53 164.04,203.45 164.04,411.45 80.84,464 72.08,459.62 72.08,153.09" fill="#0A5FFB"/>
    <!-- Left stem -->
    <polygon points="72.08,153.09 164.04,203.45 164.04,411.45 80.84,464 72.08,459.62" fill="url(#rb_stem)"/>
    <!-- Top-left roof -->
    <polygon points="72.08,153.09 262.57,48 256,146.53 164.04,203.45" fill="url(#rb_roof_l)"/>
    <!-- Top-right roof (highlight) -->
    <polygon points="262.57,48 435.54,153.09 347.96,203.45 256,146.53" fill="url(#rb_roof_r)"/>
    <!-- Right bowl -->
    <polygon points="435.54,153.09 433.35,262.57 347.96,258.19 347.96,203.45" fill="url(#rb_bowl)"/>
    <!-- Inner fold shadow -->
    <polygon points="433.35,262.57 321.68,328.25 347.96,258.19" fill="url(#rb_fold)"/>
    <!-- Waist / middle bar -->
    <polygon points="286.65,240.67 347.96,258.19 321.68,328.25 229.73,271.33" fill="url(#rb_waist)"/>
    <!-- Leg left return -->
    <polygon points="229.73,271.33 321.68,328.25 229.73,376.42" fill="url(#rb_leg)"/>
    <!-- Leg -->
    <polygon points="321.68,328.25 439.92,407.07 358.91,450.86 229.73,376.42" fill="url(#rb_leg)"/>
  </g>
</svg>
